Coordinates
version=1
nRows=15
nColumns=46
inDegrees=yes

Units are S.I. units (second, meters, Newtons, ...)
Angles are in degrees.

endheader
time	pelvis_tilt	pelvis_list	pelvis_rotation	pelvis_tx	pelvis_ty	pelvis_tz	bb_angle	bb_tx	bb_ty	bb_tz	hip_flexion_r	hip_adduction_r	hip_rotation_r	knee_angle_r	knee_angle_r_beta	ankle_angle_r	subtalar_angle_r	mtp_angle_r	crank_angle_r	hip_flexion_l	hip_adduction_l	hip_rotation_l	knee_angle_l	knee_angle_l_beta	ankle_angle_l	subtalar_angle_l	mtp_angle_l	crank_angle_l	lumbar_extension	lumbar_bending	lumbar_rotation	arm_flex_r	arm_add_r	arm_rot_r	elbow_flex_r	pro_sup_r	wrist_flex_r	wrist_dev_r	arm_flex_l	arm_add_l	arm_rot_l	elbow_flex_l	pro_sup_l	wrist_flex_l	wrist_dev_l
      5.00500000	     -1.30448511	     -0.57625640	      4.82443599	      0.08584751	      1.17800050	     -0.24084174	      0.00000000	      0.50000000	      0.00000000	      0.25000000	     66.21226770	     -3.21557100	      6.35620658	    106.55399323	      1.85971801	    -31.38608834	     -7.59793705	      0.00000000	      0.00000000	     28.65521703	     -3.85789994	     -2.60769345	     31.85174007	      0.55591774	      3.78525153	      7.33769955	      0.00000000	      0.00000000	    -67.58063382	      6.39112041	      3.33359645	     86.89474941	    -23.71021755	     45.64587288	     51.00521809	     40.53703726	      0.00000000	      0.00000000	     88.82364062	    -11.23419346	     51.12311117	     37.49091403	     36.24265881	      0.00000000	      0.00000000
      5.01000000	     -1.08668376	     -1.38514212	      4.36736314	      0.08695902	      1.17858562	     -0.24220908	      0.00000000	      0.50000000	      0.00000000	      0.25000000	     67.17980911	     -2.40865711	      6.01916091	    107.50191640	      1.87626239	    -30.34000607	     -7.51951387	      0.00000000	      0.00000000	     27.16251454	     -5.10087386	     -3.83657501	     30.58110306	      0.53374094	      3.18894491	     10.18560902	      0.00000000	      0.00000000	    -67.73941073	      7.07359900	      3.49833874	     87.21170895	    -21.93649293	     45.49037475	     49.69490740	     40.62843164	      0.00000000	      0.00000000	     88.61603244	    -12.77324924	     51.23980575	     37.99907338	     36.63439568	      0.00000000	      0.00000000
      5.01500000	     -1.02428036	     -2.00498620	      4.21275111	      0.08761483	      1.17906584	     -0.24447457	      0.00000000	      0.50000000	      0.00000000	      0.25000000	     68.26794863	     -2.09041562	      5.77968137	    108.35959849	      1.89123177	    -29.10850679	     -7.16444854	      0.00000000	      0.00000000	     25.90629394	     -5.67242823	     -3.85496893	     29.42103325	      0.51349390	      2.70435157	      8.23980085	      0.00000000	      0.00000000	    -67.79444680	      7.87714807	      3.72930004	     87.47826204	    -21.11335879	     45.61760390	     49.42332810	     40.69695325	      0.00000000	      0.00000000	     88.45696389	    -13.60285875	     51.11818362	     37.99301354	     36.73518836	      0.00000000	      0.00000000
      5.02000000	     -0.88495957	     -2.63483140	      3.82652185	      0.08839591	      1.17956014	     -0.24583702	      0.00000000	      0.50000000	      0.00000000	      0.25000000	     69.25849163	     -1.48639540	      5.56259925	    109.13748190	      1.90480840	    -27.68734719	     -7.14238229	      0.00000000	      0.00000000	     24.64407961	     -6.55976794	     -4.68816170	     28.48284221	      0.49711938	      2.27501722	      9.20395486	      0.00000000	      0.00000000	    -67.93278842	      8.42595056	      3.97932589	     87.72232840	    -20.12706953	     45.74782744	     49.03916434	     40.70130795	      0.00000000	      0.00000000	     88.27022939	    -14.56035461	     51.03322046	     37.98795454	     36.81373368	      0.00000000	      0.00000000
      5.02500000	     -0.84041251	     -3.20941732	      3.50418284	      0.08903412	      1.17989931	     -0.24724618	      0.00000000	      0.50000000	      0.00000000	      0.25000000	     70.33222322	     -1.00338326	      5.35161718	    109.81540813	      1.91664044	    -26.69017532	     -6.62320268	      0.00000000	      0.00000000	     23.58247171	     -7.30165130	     -5.34471080	     27.71623183	      0.48373950	      1.91838447	     10.03011996	      0.00000000	      0.00000000	    -67.97043729	      9.03923369	      3.83933866	     88.06460122	    -18.38686368	     45.79072944	     47.73184967	     40.57015327	      0.00000000	      0.00000000	     87.96555632	    -16.08632294	     51.04242964	     38.65482770	     37.13538965	      0.00000000	      0.00000000
      5.03000000	     -0.94274366	     -3.75160594	      3.25078379	      0.08931179	      1.18011792	     -0.24881182	      0.00000000	      0.50000000	      0.00000000	      0.25000000	     71.50918956	     -0.64846476	      5.10085622	    110.33414087	      1.92569404	    -25.69239741	     -6.91876471	      0.00000000	      0.00000000	     22.80367712	     -7.83621491	     -5.47804481	     27.13285333	      0.47355763	      1.43694754	      9.95876080	      0.00000000	      0.00000000	    -67.92178389	      9.61571519	      4.23362341	     88.26442257	    -17.95822089	     45.79354391	     47.71092080	     40.57376986	      0.00000000	      0.00000000	     87.73836042	    -16.63537833	     51.02492172	     38.57180108	     37.14879022	      0.00000000	      0.00000000
      5.03500000	     -0.91072659	     -4.17523755	      2.84044999	      0.08962524	      1.18049170	     -0.24992690	      0.00000000	      0.50000000	      0.00000000	      0.25000000	     72.48829549	     -0.13221783	      5.08144862	    110.71500362	      1.93234134	    -24.60486525	     -6.16980659	      0.00000000	      0.00000000	     21.97771162	     -8.40295259	     -6.04567919	     26.86605067	      0.46890104	      0.99151267	     10.16170306	      0.00000000	      0.00000000	    -67.97182451	     10.20220165	      3.30500798	     88.63801704	    -14.84251476	     45.62811757	     45.29504463	     40.19120607	      0.00000000	      0.00000000	     87.13316673	    -19.66824303	     51.28365442	     40.42622225	     37.88913783	      0.00000000	      0.00000000
      5.04000000	     -1.06275680	     -4.64905120	      2.50815858	      0.08954884	      1.18077714	     -0.25130706	      0.00000000	      0.50000000	      0.00000000	      0.25000000	     73.59324328	      0.26522876	      4.91532642	    110.86912034	      1.93503119	    -23.84586071	     -5.86743667	      0.00000000	      0.00000000	     21.45389866	     -8.81213985	     -6.04478512	     26.62764664	      0.46474011	      0.14353395	      9.91086088	      0.00000000	      0.00000000	    -67.96979831	     10.70979174	      3.23486280	     88.83904662	    -13.67140062	     45.44385397	     45.01641171	     40.11567742	      0.00000000	      0.00000000	     86.82440527	    -20.91894646	     51.30215072	     40.96621159	     38.19297721	      0.00000000	      0.00000000
      5.04500000	     -1.16995705	     -5.06884571	      2.08977455	      0.08943323	      1.18125461	     -0.25230637	      0.00000000	      0.50000000	      0.00000000	      0.25000000	     74.56014555	      0.75536660	      4.76858071	    110.87595728	      1.93515052	    -23.11518792	     -5.92134312	      0.00000000	      0.00000000	     20.97503434	     -9.25981084	     -6.16823731	     26.70359346	      0.46606563	     -0.15105881	      9.37917856	      0.00000000	      0.00000000	    -68.04416957	     11.01786053	      3.58253667	     88.98538659	    -13.17082584	     45.43331597	     45.04016451	     40.10850644	      0.00000000	      0.00000000	     86.61974792	    -21.49624304	     51.30273423	     40.99905179	     38.24532082	      0.00000000	      0.00000000
      5.05000000	     -1.40595661	     -5.43525046	      1.69523630	      0.08900890	      1.18148709	     -0.25321101	      0.00000000	      0.50000000	      0.00000000	      0.25000000	     75.60734240	      1.24419315	      4.73403845	    110.72813834	      1.93257059	    -22.44232906	     -5.50859487	      0.00000000	      0.00000000	     20.87257592	     -9.58906360	     -5.99401673	     27.20056325	      0.47473939	     -0.44066695	      8.22200862	      0.00000000	      0.00000000	    -68.06650818	     11.61897461	      2.60430786	     89.21805309	    -10.17573305	     44.68124664	     43.45308658	     39.55373857	      0.00000000	      0.00000000	     85.89827149	    -25.00049848	     51.38759615	     43.82111542	     39.29266236	      0.00000000	      0.00000000
      5.05500000	     -1.70076905	     -5.84694326	      1.20467844	      0.08847702	      1.18173631	     -0.25398284	      0.00000000	      0.50000000	      0.00000000	      0.25000000	     76.60650921	      1.82937018	      4.61824801	    110.40537322	      1.92693727	    -21.86775617	     -5.33608528	      0.00000000	      0.00000000	     20.96942408	     -9.98825584	     -5.77816830	     27.96571784	      0.48809385	     -0.61300087	      6.99727638	      0.00000000	      0.00000000	    -68.07908244	     11.84004979	      2.74939598	     89.29006005	     -9.29891382	     44.27742159	     43.54936554	     39.33522157	      0.00000000	      0.00000000	     85.65489059	    -26.09964522	     51.34672811	     44.45392578	     39.71586838	      0.00000000	      0.00000000
      5.06000000	     -2.06744222	     -6.28514150	      0.62666706	      0.08767085	      1.18196055	     -0.25442133	      0.00000000	      0.50000000	      0.00000000	      0.25000000	     77.58066189	      2.53268289	      4.43397587	    109.92037546	      1.91847247	    -21.24583000	     -5.22239039	      0.00000000	      0.00000000	     21.32921423	    -10.46258423	     -5.47488672	     29.12228148	      0.50827970	     -0.41775246	      5.04937763	      0.00000000	      0.00000000	    -68.04770651	     11.87395290	      2.79915172	     89.37346660	     -8.36865983	     43.91707785	     43.60757916	     39.03647818	      0.00000000	      0.00000000	     85.50576639	    -27.41898358	     51.52626651	     45.45486616	     40.26595618	      0.00000000	      0.00000000
      5.06500000	     -2.22238650	     -6.62445190	     -0.10345893	      0.08676455	      1.18259112	     -0.25450525	      0.00000000	      0.50000000	      0.00000000	      0.25000000	     78.18186853	      3.44538218	      4.40897926	    109.29087608	      1.90748563	    -20.54930744	     -5.25909763	      0.00000000	      0.00000000	     21.51421715	    -10.92174503	     -5.41602286	     30.39667024	      0.53052198	     -0.52679100	      3.64916911	      0.00000000	      0.00000000	    -68.27427745	     11.72427026	      3.13031386	     89.46291447	     -7.87775673	     43.84938534	     43.88154827	     39.02120767	      0.00000000	      0.00000000	     85.58432023	    -27.99565928	     51.49321476	     45.48058885	     40.31939178	      0.00000000	      0.00000000
      5.07000000	     -2.85105748	     -7.08011704	     -0.63992236	      0.08542419	      1.18239908	     -0.25476302	      0.00000000	      0.50000000	      0.00000000	      0.25000000	     79.21383993	      4.17755623	      4.20022575	    108.52899689	      1.89418833	    -19.85853863	     -5.14284335	      0.00000000	      0.00000000	     22.58088192	    -11.28641876	     -4.49457246	     32.09978066	      0.56024686	     -1.01924255	      1.52510663	      0.00000000	      0.00000000	    -68.09614551	     11.88592842	      3.32087819	     89.51111202	     -7.03474217	     43.41251214	     44.24597228	     38.82766423	      0.00000000	      0.00000000	     85.42970516	    -29.32201715	     51.81208420	     46.59916218	     40.73879504	      0.00000000	      0.00000000
      5.07500000	     -3.17246896	     -7.43339193	     -1.44545170	      0.08421789	      1.18277285	     -0.25458219	      0.00000000	      0.50000000	      0.00000000	      0.25000000	     79.74361784	      5.19501657	      4.12926844	    107.64733042	      1.87880035	    -18.89815192	     -5.21794408	      0.00000000	      0.00000000	     23.31292982	    -11.72858811	     -4.07065137	     33.96136866	      0.59273770	     -1.43987669	     -0.36733718	      0.00000000	      0.00000000	    -68.20893095	     11.64002632	      3.56488445	     89.56891787	     -6.32846807	     43.17566324	     44.58968370	     38.72102856	      0.00000000	      0.00000000	     85.46998096	    -30.31439070	     51.94316600	     47.19060726	     40.96219155	      0.00000000	      0.00000000
